<svg xmlns="http://www.w3.org/2000/svg" xmlns:xlink="http://www.w3.org/1999/xlink" preserveAspectRatio="xMidYMid" width="56" height="56" viewBox="0 0 56 56">
  <defs>
    <style>
      .cls-1 {
        fill: #000;
        fill-rule: evenodd;
      }
    </style>

    <clipPath id="clip-path-1">
      <rect x="-752.015" y="-1557.075" width="1366" height="3972"/>
    </clipPath>
  </defs>
  <g clip-path="url(#clip-path-1)">
    <path d="M3.757,13.940 C1.252,18.232 -0.000,22.919 -0.000,28.001 C-0.000,33.083 1.252,37.770 3.757,42.062 C6.261,46.353 9.659,49.752 13.951,52.256 C18.243,54.760 22.930,56.013 28.012,56.013 C33.094,56.013 37.781,54.760 42.073,52.256 C46.364,49.752 49.763,46.353 52.267,42.062 C54.772,37.770 56.024,33.083 56.024,28.001 C56.024,22.919 54.772,18.232 52.267,13.940 C49.763,9.649 46.364,6.250 42.073,3.745 C37.781,1.241 33.094,-0.012 28.012,-0.012 C22.930,-0.012 18.243,1.241 13.951,3.745 C9.659,6.250 6.261,9.649 3.757,13.940 ZM39.574,18.554 C40.109,18.700 40.194,18.895 39.830,19.137 C39.781,19.186 39.653,19.205 39.447,19.192 C39.240,19.180 39.100,19.186 39.027,19.210 C39.246,19.259 39.428,19.326 39.574,19.411 C39.720,19.497 39.757,19.612 39.684,19.758 C40.072,19.976 40.145,20.220 39.903,20.487 C39.586,20.803 39.210,20.937 38.772,20.888 C38.845,20.888 38.845,20.937 38.772,21.034 L38.152,21.435 C38.103,21.460 37.945,21.521 37.678,21.618 C37.410,21.715 37.227,21.825 37.131,21.946 C37.058,22.043 37.021,22.189 37.021,22.384 C37.021,22.579 37.009,22.725 36.985,22.821 C36.960,22.919 36.863,22.943 36.693,22.894 C36.620,23.040 36.395,23.156 36.018,23.241 C35.641,23.326 35.392,23.454 35.270,23.624 C35.416,23.819 35.404,24.013 35.234,24.207 C34.942,24.451 34.687,24.426 34.468,24.134 C34.346,24.183 34.255,24.305 34.194,24.499 C34.133,24.694 34.042,24.827 33.921,24.900 C34.091,25.168 34.067,25.363 33.848,25.484 C33.872,25.484 33.927,25.509 34.012,25.557 C34.097,25.606 34.188,25.666 34.286,25.739 C34.382,25.812 34.443,25.849 34.468,25.849 C34.371,26.068 34.237,26.177 34.067,26.177 C34.213,26.566 34.030,26.992 33.520,27.454 C33.422,27.551 33.270,27.649 33.064,27.745 C32.857,27.843 32.668,27.922 32.498,27.982 C32.328,28.043 32.231,28.086 32.207,28.110 C31.963,28.329 31.781,28.554 31.659,28.785 C31.538,29.016 31.519,29.241 31.605,29.460 C31.690,29.678 31.915,29.824 32.279,29.897 L32.316,30.189 C32.316,30.408 32.316,30.627 32.316,30.846 L32.353,31.137 C32.376,31.308 32.395,31.460 32.407,31.593 C32.419,31.727 32.419,31.898 32.407,32.104 C32.395,32.311 32.340,32.427 32.243,32.451 C32.146,32.475 32.012,32.451 31.842,32.378 C31.647,32.281 31.416,31.746 31.149,30.773 C31.100,30.530 30.954,30.238 30.711,29.897 C30.589,30.019 30.486,30.098 30.401,30.134 C30.316,30.171 30.255,30.177 30.219,30.153 C30.182,30.129 30.115,30.074 30.018,29.989 C29.921,29.904 29.836,29.837 29.763,29.788 C29.641,29.715 29.428,29.655 29.124,29.606 C28.820,29.557 28.632,29.496 28.559,29.423 C27.976,29.861 27.623,29.752 27.501,29.095 C27.452,29.217 27.459,29.381 27.520,29.587 C27.580,29.794 27.611,29.910 27.611,29.934 C27.440,30.250 27.173,30.275 26.808,30.007 C26.663,29.861 26.328,29.843 25.805,29.952 C25.282,30.061 24.936,30.080 24.766,30.007 C24.790,30.007 24.839,30.043 24.912,30.116 C24.985,30.165 25.033,30.202 25.058,30.226 C25.033,30.323 24.997,30.396 24.948,30.444 C24.899,30.493 24.851,30.512 24.802,30.499 C24.753,30.487 24.699,30.487 24.638,30.499 C24.577,30.512 24.523,30.530 24.474,30.554 C24.377,30.627 24.255,30.755 24.109,30.937 C23.964,31.119 23.854,31.235 23.781,31.283 C23.927,31.673 23.994,31.971 23.982,32.177 C23.969,32.384 23.933,32.688 23.872,33.089 C23.811,33.490 23.781,33.813 23.781,34.055 C23.781,34.445 23.896,34.894 24.128,35.405 C24.358,35.916 24.632,36.268 24.948,36.463 C25.118,36.560 25.410,36.621 25.824,36.645 C26.237,36.670 26.529,36.645 26.699,36.572 C26.845,36.499 26.954,36.414 27.027,36.317 C27.100,36.220 27.161,36.080 27.210,35.897 C27.258,35.715 27.295,35.587 27.319,35.514 C27.489,35.053 27.805,34.809 28.267,34.785 C28.559,34.761 28.772,34.791 28.906,34.876 C29.039,34.962 29.094,35.077 29.070,35.223 C29.045,35.368 28.997,35.521 28.924,35.679 C28.851,35.837 28.760,36.013 28.650,36.207 C28.541,36.402 28.474,36.548 28.450,36.645 C28.401,36.840 28.359,37.114 28.322,37.466 C28.286,37.819 28.255,38.031 28.231,38.104 C28.279,38.129 28.462,38.141 28.778,38.141 C28.778,38.092 28.796,38.013 28.833,37.904 C28.869,37.794 28.887,37.727 28.887,37.703 C29.009,37.898 29.203,38.007 29.471,38.031 C29.738,38.056 29.933,37.958 30.055,37.739 C30.103,37.812 30.249,37.995 30.492,38.286 C30.735,38.578 30.869,38.821 30.894,39.016 C30.917,39.113 30.966,39.271 31.039,39.490 C31.112,39.709 31.136,39.861 31.112,39.946 C31.088,40.031 30.966,40.074 30.748,40.074 C30.650,40.074 30.589,40.110 30.565,40.183 C30.541,40.256 30.541,40.347 30.565,40.457 C30.589,40.566 30.620,40.670 30.656,40.767 C30.693,40.864 30.741,40.967 30.802,41.077 C30.863,41.186 30.894,41.253 30.894,41.277 C31.331,42.080 31.927,42.299 32.681,41.934 C32.681,42.639 32.510,43.028 32.170,43.101 C31.975,43.150 31.756,43.028 31.513,42.736 C31.270,42.445 31.185,42.202 31.258,42.007 C31.234,42.129 31.149,42.238 31.003,42.335 C30.881,42.189 30.662,42.007 30.346,41.788 C30.030,41.569 29.811,41.387 29.690,41.241 C29.641,41.168 29.574,41.065 29.489,40.931 C29.404,40.797 29.294,40.621 29.161,40.402 C29.027,40.183 28.930,39.995 28.869,39.837 C28.808,39.679 28.802,39.587 28.851,39.563 C28.389,39.758 27.720,39.624 26.845,39.162 C26.674,39.065 26.419,38.810 26.079,38.396 C25.738,37.983 25.386,37.800 25.021,37.849 C24.899,37.873 24.735,37.916 24.529,37.976 C24.322,38.037 24.146,38.068 24.000,38.068 C23.854,38.068 23.659,38.019 23.416,37.922 C23.221,37.849 22.960,37.709 22.632,37.502 C22.304,37.296 22.079,37.168 21.957,37.119 C21.884,37.071 21.726,36.986 21.483,36.864 C21.240,36.742 21.045,36.645 20.900,36.572 C20.754,36.499 20.602,36.384 20.444,36.226 C20.285,36.068 20.182,35.904 20.134,35.733 C20.084,35.587 20.024,35.296 19.951,34.858 C19.878,34.420 19.781,34.104 19.659,33.910 C19.514,33.667 19.307,33.423 19.039,33.180 C18.772,32.937 18.529,32.815 18.310,32.815 C18.504,32.815 18.504,32.651 18.310,32.323 C18.115,31.995 17.945,31.757 17.799,31.612 C17.750,31.563 17.604,31.405 17.362,31.137 C17.118,30.870 16.911,30.639 16.741,30.444 C16.571,30.250 16.425,30.025 16.304,29.770 C16.182,29.514 16.158,29.302 16.231,29.131 C16.255,29.107 16.231,29.071 16.158,29.022 C16.085,28.973 15.994,28.925 15.884,28.876 C15.775,28.828 15.671,28.785 15.574,28.748 C15.477,28.712 15.404,28.694 15.356,28.694 C15.404,28.791 15.459,28.967 15.520,29.223 C15.580,29.478 15.647,29.667 15.720,29.788 C15.769,29.885 15.975,30.238 16.340,30.846 C16.972,31.867 17.264,32.621 17.216,33.107 C17.070,33.156 16.972,33.132 16.924,33.034 C16.875,32.937 16.838,32.803 16.815,32.633 C16.790,32.463 16.765,32.341 16.741,32.268 C16.669,32.122 16.480,31.964 16.176,31.794 C15.872,31.624 15.684,31.454 15.611,31.283 C15.635,31.283 15.666,31.271 15.702,31.247 C15.739,31.223 15.769,31.210 15.793,31.210 C15.817,30.992 15.689,30.712 15.410,30.372 C15.130,30.031 15.015,29.788 15.064,29.642 C14.869,29.496 14.699,29.211 14.553,28.785 C14.407,28.360 14.285,28.086 14.188,27.964 C14.091,27.818 13.969,27.691 13.824,27.581 C13.678,27.472 13.495,27.350 13.276,27.216 C13.058,27.083 12.912,26.992 12.839,26.943 C12.790,26.919 12.693,26.810 12.547,26.615 C11.745,25.642 11.501,25.119 11.817,25.046 C11.501,25.119 11.240,24.882 11.033,24.335 C10.826,23.788 10.760,23.369 10.833,23.077 L10.760,23.040 C10.784,22.943 10.796,22.657 10.796,22.183 C10.796,21.709 10.826,21.277 10.887,20.888 C10.948,20.500 11.063,20.305 11.234,20.305 C11.063,20.329 10.936,20.177 10.851,19.849 C10.765,19.520 10.760,19.296 10.833,19.174 C10.857,19.101 10.966,19.150 11.161,19.320 C11.355,19.490 11.465,19.600 11.489,19.648 C11.805,19.478 11.927,19.259 11.854,18.992 C11.805,18.895 11.550,18.639 11.088,18.226 C10.042,17.545 9.507,17.217 9.483,17.241 C9.629,16.974 9.592,16.743 9.374,16.548 C9.130,16.694 8.991,16.730 8.954,16.657 C8.918,16.584 8.887,16.451 8.863,16.256 C8.839,16.062 8.778,15.952 8.681,15.928 C8.559,15.904 8.413,15.806 8.243,15.636 C10.407,12.183 13.264,9.484 16.815,7.539 C16.960,7.515 17.228,7.502 17.617,7.502 C17.811,7.527 17.994,7.588 18.164,7.685 C18.334,7.782 18.510,7.916 18.693,8.086 C18.875,8.256 19.015,8.378 19.112,8.451 C19.161,8.305 19.100,8.086 18.930,7.794 C18.978,7.648 19.246,7.502 19.732,7.356 C20.291,7.283 20.656,7.296 20.827,7.393 C20.681,7.174 20.437,6.870 20.097,6.481 L19.915,6.663 C19.720,6.493 19.209,6.578 18.383,6.919 C18.334,6.943 18.212,7.010 18.018,7.119 C17.823,7.229 17.665,7.308 17.544,7.356 C17.398,7.405 17.252,7.417 17.106,7.393 C18.273,6.761 19.416,6.262 20.535,5.897 C20.608,5.946 20.729,6.049 20.900,6.207 C21.069,6.366 21.203,6.481 21.301,6.554 C21.228,6.505 21.179,6.530 21.155,6.627 C21.058,6.919 21.058,7.162 21.155,7.356 C21.276,7.527 21.440,7.624 21.647,7.648 C21.854,7.673 22.103,7.661 22.395,7.612 C22.687,7.563 22.881,7.539 22.979,7.539 L23.343,7.575 C24.121,7.648 24.425,7.575 24.255,7.356 C24.328,7.454 24.413,7.654 24.511,7.958 C24.607,8.262 24.717,8.475 24.839,8.596 C24.960,8.500 24.985,8.329 24.912,8.086 C24.839,7.843 24.839,7.673 24.912,7.575 C24.936,7.527 25.009,7.478 25.130,7.429 C25.252,7.381 25.392,7.326 25.550,7.265 C25.708,7.205 25.811,7.162 25.860,7.137 C26.006,7.041 25.908,6.870 25.568,6.627 C25.519,6.603 25.416,6.566 25.258,6.517 C25.100,6.469 24.960,6.421 24.839,6.371 C24.717,6.323 24.589,6.256 24.456,6.171 C24.322,6.086 24.261,5.989 24.273,5.879 C24.285,5.770 24.352,5.630 24.474,5.460 C24.620,5.338 24.857,5.290 25.185,5.314 C25.513,5.338 25.763,5.399 25.933,5.496 C26.589,5.861 26.686,6.189 26.225,6.481 C26.467,6.505 26.759,6.603 27.100,6.773 C27.440,6.943 27.574,7.126 27.501,7.320 C27.696,6.955 27.890,6.773 28.085,6.773 C28.206,6.797 28.322,6.961 28.431,7.265 C28.541,7.570 28.608,7.734 28.632,7.757 C28.826,8.025 29.021,8.086 29.216,7.940 C29.410,7.794 29.611,7.581 29.818,7.302 C30.024,7.022 30.139,6.895 30.164,6.919 C29.921,6.822 29.896,6.724 30.091,6.627 C30.456,6.408 30.784,6.347 31.076,6.444 C31.149,6.493 31.246,6.603 31.368,6.773 C31.586,7.210 31.550,7.417 31.258,7.393 C31.477,7.588 31.568,7.831 31.532,8.122 C31.495,8.414 31.307,8.548 30.966,8.523 C30.844,8.523 30.668,8.463 30.438,8.341 C30.206,8.220 30.030,8.153 29.909,8.140 C29.787,8.129 29.617,8.195 29.398,8.341 C29.301,8.463 29.173,8.669 29.015,8.961 C28.857,9.253 28.717,9.460 28.596,9.581 C28.231,9.946 27.623,10.080 26.772,9.982 C26.845,9.982 26.839,10.055 26.754,10.201 C26.668,10.347 26.553,10.511 26.407,10.694 C26.261,10.876 26.176,10.980 26.152,11.004 C25.933,11.247 25.787,11.527 25.714,11.843 C25.714,11.892 25.702,12.056 25.678,12.335 C25.653,12.615 25.605,12.827 25.532,12.973 C25.824,12.900 26.054,13.046 26.225,13.411 C26.371,13.752 26.371,13.934 26.225,13.958 C27.027,13.837 27.732,13.885 28.340,14.104 C29.216,14.420 29.714,14.737 29.836,15.052 C29.982,14.834 30.334,14.821 30.894,15.016 C31.112,15.138 31.307,15.503 31.477,16.110 C31.574,16.475 31.738,16.791 31.970,17.058 C32.200,17.326 32.449,17.399 32.717,17.277 L32.827,17.204 C32.923,17.156 33.003,17.113 33.064,17.077 C33.124,17.040 33.191,16.992 33.264,16.931 C33.337,16.870 33.379,16.816 33.392,16.767 C33.404,16.718 33.386,16.670 33.337,16.621 C33.167,16.475 33.039,16.274 32.954,16.019 C32.869,15.764 32.887,15.539 33.009,15.344 C33.082,15.247 33.276,15.101 33.593,14.906 C33.908,14.712 34.103,14.518 34.176,14.323 C34.273,14.007 34.152,13.746 33.811,13.539 C33.471,13.332 33.301,13.144 33.301,12.973 C33.301,12.852 33.379,12.706 33.538,12.536 C33.696,12.366 33.762,12.207 33.738,12.061 C33.738,11.989 33.696,11.837 33.611,11.606 C33.525,11.375 33.477,11.204 33.465,11.095 C33.452,10.985 33.507,10.858 33.629,10.712 C33.799,10.615 34.200,10.621 34.833,10.730 C35.465,10.840 35.878,10.955 36.073,11.077 C36.146,11.126 36.304,11.199 36.547,11.295 C36.790,11.393 37.003,11.496 37.185,11.606 C37.368,11.715 37.471,11.819 37.495,11.915 L37.313,11.915 C37.483,12.061 37.586,12.232 37.623,12.426 C37.660,12.621 37.568,12.767 37.349,12.864 C37.495,12.840 37.690,12.876 37.933,12.973 C38.322,13.119 38.334,13.253 37.969,13.375 C38.042,13.350 38.146,13.326 38.279,13.302 C38.413,13.278 38.517,13.241 38.590,13.192 C38.638,13.168 38.699,13.125 38.772,13.064 C38.845,13.004 38.900,12.968 38.936,12.955 C38.973,12.943 39.027,12.931 39.100,12.919 C39.173,12.907 39.246,12.925 39.319,12.973 C39.343,12.973 39.398,12.913 39.483,12.791 C39.568,12.670 39.659,12.548 39.757,12.426 C39.854,12.305 39.939,12.244 40.012,12.244 C40.085,12.244 40.152,12.275 40.213,12.335 C40.273,12.396 40.322,12.463 40.359,12.536 C40.395,12.609 40.431,12.688 40.468,12.773 C40.504,12.858 40.535,12.925 40.559,12.973 C40.608,13.095 40.723,13.223 40.906,13.356 C41.088,13.490 41.203,13.618 41.252,13.739 C41.276,13.812 41.325,13.995 41.398,14.286 C41.471,14.578 41.568,14.779 41.690,14.888 C41.811,14.998 41.994,15.089 42.237,15.162 C42.285,15.186 42.395,15.174 42.565,15.125 C42.735,15.077 42.875,15.065 42.985,15.089 C43.094,15.113 43.149,15.211 43.149,15.381 C43.295,15.235 43.368,15.138 43.368,15.089 C43.392,15.405 43.471,15.661 43.605,15.855 C43.738,16.050 43.951,16.135 44.243,16.110 L44.170,16.913 C44.097,17.035 43.915,17.126 43.623,17.186 C43.331,17.247 43.149,17.302 43.076,17.350 C43.003,17.375 42.826,17.521 42.547,17.788 C42.267,18.056 42.151,18.214 42.200,18.262 C41.787,17.801 41.167,17.666 40.340,17.861 C39.416,18.007 38.784,18.153 38.444,18.299 C38.054,18.493 37.787,18.676 37.641,18.846 C37.617,18.870 37.574,18.955 37.514,19.101 C37.453,19.247 37.392,19.381 37.331,19.502 C37.270,19.624 37.215,19.685 37.167,19.685 C37.313,19.661 37.477,19.545 37.660,19.338 C37.842,19.132 37.957,19.016 38.006,18.992 C38.638,18.578 39.161,18.432 39.574,18.554 L39.574,18.554 ZM31.988,50.396 C31.963,50.201 32.048,49.940 32.243,49.612 C32.437,49.283 32.535,49.034 32.535,48.864 C32.146,48.767 32.000,48.451 32.097,47.916 C32.146,47.551 32.498,47.065 33.155,46.457 C33.616,46.043 33.762,45.460 33.593,44.706 C33.520,44.390 33.459,43.928 33.410,43.320 C33.361,42.712 33.313,42.287 33.264,42.043 C33.264,42.116 33.379,42.184 33.611,42.244 C33.842,42.305 33.981,42.384 34.030,42.481 C34.079,42.408 34.140,42.275 34.213,42.080 C34.286,41.885 34.359,41.740 34.432,41.642 C34.480,41.569 34.583,41.478 34.742,41.368 C34.899,41.259 35.003,41.192 35.052,41.168 C35.100,41.144 35.209,41.065 35.380,40.931 C35.550,40.797 35.690,40.694 35.799,40.621 C35.909,40.548 36.055,40.493 36.237,40.457 C36.419,40.420 36.547,40.475 36.620,40.621 C36.741,40.767 36.717,40.992 36.547,41.296 C36.377,41.600 36.377,41.812 36.547,41.934 C36.571,41.861 36.595,41.703 36.620,41.460 C36.644,41.217 36.717,41.035 36.839,40.913 C36.985,40.767 37.124,40.682 37.258,40.657 C37.392,40.633 37.514,40.652 37.623,40.712 C37.732,40.773 37.860,40.858 38.006,40.967 C38.152,41.077 38.285,41.144 38.407,41.168 C38.772,41.290 39.210,41.557 39.720,41.970 C39.696,41.946 39.696,41.916 39.720,41.879 C39.744,41.843 39.793,41.806 39.866,41.770 C39.939,41.733 40.006,41.697 40.067,41.660 C40.127,41.624 40.194,41.594 40.267,41.569 L40.377,41.533 C40.547,41.533 40.669,41.521 40.742,41.496 C40.814,41.472 40.918,41.496 41.052,41.569 C41.185,41.642 41.276,41.697 41.325,41.733 C41.374,41.770 41.458,41.837 41.580,41.934 C41.702,42.031 41.787,42.104 41.836,42.153 C41.909,42.202 42.042,42.287 42.237,42.408 C42.431,42.530 42.583,42.627 42.693,42.700 C42.802,42.773 42.899,42.882 42.985,43.028 C43.070,43.174 43.100,43.332 43.076,43.502 C43.222,43.527 43.514,43.624 43.951,43.794 C44.024,43.843 44.176,43.885 44.407,43.922 C44.638,43.958 44.790,44.013 44.863,44.086 C41.337,47.806 37.070,50.104 32.061,50.979 C32.012,50.737 31.988,50.542 31.988,50.396 L31.988,50.396 Z" transform="translate(-0.02)" class="cls-1"/>
  </g>
</svg>
