<svg xmlns="http://www.w3.org/2000/svg" xmlns:xlink="http://www.w3.org/1999/xlink" preserveAspectRatio="xMidYMid" width="33.906" height="56" viewBox="0 0 33.906 56">
  <defs>
    <style>
      .cls-1 {
        fill: #000;
        fill-rule: evenodd;
      }
    </style>

    <clipPath id="clip-path-1">
      <rect x="-752" y="-1257.44" width="1366" height="3972"/>
    </clipPath>
  </defs>
  <g clip-path="url(#clip-path-1)">
    <path d="M16.956,53.958 C15.984,53.958 15.152,53.615 14.461,52.929 C13.769,52.243 13.423,51.417 13.423,50.454 C13.423,49.491 13.769,48.666 14.461,47.980 C15.152,47.294 15.984,46.950 16.956,46.950 C17.927,46.950 18.758,47.294 19.451,47.980 C20.142,48.666 20.488,49.491 20.488,50.454 C20.488,51.417 20.142,52.243 19.451,52.929 C18.758,53.615 17.927,53.958 16.956,53.958 ZM29.253,44.432 C28.973,44.710 28.642,44.848 28.260,44.848 L5.652,44.848 C5.269,44.848 4.938,44.710 4.658,44.432 C4.378,44.155 4.239,43.826 4.239,43.447 L4.239,12.615 C4.239,12.236 4.378,11.907 4.658,11.629 C4.938,11.352 5.269,11.213 5.652,11.213 L28.260,11.213 C28.642,11.213 28.973,11.352 29.253,11.629 C29.532,11.907 29.673,12.236 29.673,12.615 L29.673,43.447 C29.673,43.826 29.532,44.155 29.253,44.432 ZM20.488,7.009 L13.423,7.009 C12.952,7.009 12.717,6.776 12.717,6.308 C12.717,5.841 12.952,5.607 13.423,5.607 L20.488,5.607 C20.959,5.607 21.195,5.841 21.195,6.308 C21.195,6.776 20.959,7.009 20.488,7.009 L20.488,7.009 ZM32.234,1.666 C31.115,0.556 29.790,0.001 28.260,0.001 L5.652,0.001 C4.121,0.001 2.796,0.556 1.678,1.666 C0.559,2.776 -0.000,4.090 -0.000,5.607 L-0.000,50.454 C-0.000,51.972 0.559,53.286 1.678,54.396 C2.796,55.506 4.121,56.060 5.652,56.060 L28.260,56.060 C29.790,56.060 31.115,55.506 32.234,54.396 C33.352,53.286 33.911,51.972 33.911,50.454 L33.911,5.607 C33.911,4.090 33.352,2.776 32.234,1.666 Z" transform="translate(0 -0.03)" class="cls-1"/>
  </g>
</svg>
