<svg xmlns="http://www.w3.org/2000/svg" xmlns:xlink="http://www.w3.org/1999/xlink" preserveAspectRatio="xMidYMid" width="56" height="56" viewBox="0 0 56 56">
  <defs>
    <style>
      .cls-1 {
        fill: #000;
        fill-rule: evenodd;
      }
    </style>
  </defs>
  <path d="M7.687,40.853 C10.166,44.728 13.448,47.655 17.531,49.634 L6.062,18.228 C4.666,21.353 3.969,24.614 3.969,28.009 C3.969,32.697 5.208,36.978 7.687,40.853 ZM42.250,20.165 C42.187,20.061 42.041,19.822 41.812,19.447 C41.583,19.071 41.432,18.821 41.359,18.696 C41.286,18.572 41.156,18.353 40.969,18.040 C40.781,17.728 40.656,17.493 40.594,17.337 C40.531,17.181 40.437,16.962 40.312,16.681 C40.187,16.400 40.104,16.161 40.062,15.962 C40.020,15.764 39.979,15.540 39.937,15.290 C39.895,15.040 39.875,14.790 39.875,14.540 C39.875,13.395 40.260,12.400 41.031,11.556 C41.802,10.712 42.760,10.290 43.906,10.290 L44.219,10.290 C42.031,8.290 39.547,6.739 36.765,5.634 C33.984,4.530 31.062,3.978 28.000,3.978 C23.875,3.978 20.047,4.952 16.516,6.900 C12.984,8.848 10.125,11.488 7.937,14.822 C8.145,14.822 8.416,14.827 8.750,14.837 C9.083,14.848 9.323,14.853 9.469,14.853 L15.875,14.540 C16.271,14.520 16.567,14.660 16.765,14.962 C16.963,15.264 16.989,15.587 16.844,15.931 C16.698,16.275 16.427,16.468 16.031,16.509 C15.156,16.614 14.239,16.697 13.281,16.759 L22.031,42.759 L27.281,27.009 L23.531,16.759 L21.031,16.509 C20.781,16.489 20.578,16.405 20.422,16.259 C20.265,16.114 20.172,15.942 20.140,15.743 C20.109,15.546 20.125,15.353 20.187,15.165 C20.250,14.978 20.370,14.822 20.547,14.697 C20.724,14.572 20.937,14.520 21.187,14.540 C23.833,14.728 25.937,14.832 27.500,14.853 L33.906,14.540 C34.302,14.520 34.599,14.660 34.797,14.962 C34.995,15.264 35.020,15.587 34.875,15.931 C34.729,16.275 34.458,16.468 34.062,16.509 C33.187,16.614 32.270,16.697 31.312,16.759 L40.000,42.572 L42.375,34.572 C42.458,34.301 42.640,33.697 42.922,32.759 C43.203,31.822 43.385,31.207 43.469,30.915 C43.552,30.624 43.672,30.165 43.828,29.540 C43.984,28.915 44.088,28.400 44.140,27.993 C44.192,27.587 44.219,27.186 44.219,26.790 C44.219,24.603 43.562,22.395 42.250,20.165 L42.250,20.165 ZM21.219,51.040 C23.406,51.707 25.666,52.040 28.000,52.040 C30.687,52.040 33.344,51.582 35.969,50.665 C35.885,50.561 35.833,50.446 35.812,50.322 L28.406,30.103 L21.219,51.040 ZM49.250,18.946 C49.250,21.176 48.635,24.051 47.406,27.572 L40.062,48.759 C43.708,46.634 46.614,43.733 48.781,40.056 C50.948,36.379 52.031,32.363 52.031,28.009 C52.031,23.947 51.041,20.103 49.062,16.478 C49.187,17.249 49.250,18.072 49.250,18.946 L49.250,18.946 ZM8.187,8.196 C5.687,10.697 3.698,13.676 2.219,17.134 C0.739,20.592 -0.000,24.217 -0.000,28.009 C-0.000,31.801 0.739,35.426 2.219,38.884 C3.698,42.343 5.687,45.322 8.187,47.822 C10.687,50.322 13.666,52.311 17.125,53.790 C20.583,55.269 24.208,56.009 28.000,56.009 C31.791,56.009 35.416,55.269 38.875,53.790 C42.333,52.311 45.312,50.322 47.812,47.822 C50.312,45.322 52.302,42.343 53.781,38.884 C55.260,35.426 56.000,31.801 56.000,28.009 C56.000,24.217 55.260,20.592 53.781,17.134 C52.302,13.676 50.312,10.697 47.812,8.196 C45.312,5.697 42.333,3.707 38.875,2.228 C35.416,0.749 31.791,0.009 28.000,0.009 C24.208,0.009 20.583,0.749 17.125,2.228 C13.666,3.707 10.687,5.697 8.187,8.196 ZM9.109,46.900 C6.724,44.514 4.823,41.671 3.406,38.368 C1.989,35.067 1.281,31.614 1.281,28.009 C1.281,24.405 1.989,20.952 3.406,17.650 C4.823,14.348 6.724,11.504 9.109,9.118 C11.494,6.733 14.338,4.832 17.640,3.415 C20.942,1.999 24.395,1.290 28.000,1.290 C31.604,1.290 35.057,1.999 38.359,3.415 C41.661,4.832 44.505,6.733 46.890,9.118 C49.276,11.504 51.177,14.348 52.594,17.650 C54.010,20.952 54.719,24.405 54.719,28.009 C54.719,31.614 54.010,35.067 52.594,38.368 C51.177,41.671 49.276,44.514 46.890,46.900 C44.505,49.285 41.661,51.186 38.359,52.603 C35.057,54.019 31.604,54.728 28.000,54.728 C24.395,54.728 20.942,54.019 17.640,52.603 C14.338,51.186 11.494,49.285 9.109,46.900 Z" class="cls-1"/>
</svg>
